<svg width="300" height="80" viewBox="0 0 300 80" fill="none" xmlns="http://www.w3.org/2000/svg">
<g clip-path="url(#clip0_1_1423)">
<path d="M298.206 71.6807C297.277 73.9645 294.55 74.7243 292.371 73.2627L292.73 72.4531C293.546 72.9602 294.509 73.1824 295.466 73.0842C295.756 73.0728 296.039 72.9929 296.291 72.8509C296.543 72.709 296.758 72.5092 296.917 72.2683C297.075 72.0274 297.174 71.7522 297.204 71.4658C297.234 71.1794 297.194 70.8901 297.089 70.6219C296.85 70.0672 296.398 69.6296 295.834 69.4053C295.311 69.1478 294.755 68.9568 294.24 68.6828C292.831 67.9312 292.333 66.7271 292.881 65.4149C293.048 64.9875 293.332 64.6153 293.702 64.3407C294.072 64.0661 294.512 63.9002 294.972 63.862C295.7 63.8034 296.432 63.8666 297.139 64.0488C297.976 64.2606 297.976 64.3769 297.511 65.1035C296.962 64.9215 296.403 64.7676 295.838 64.6426C294.558 64.4267 293.592 65.2613 293.663 66.4572C293.68 66.7195 293.766 66.9728 293.913 67.1915C294.06 67.4102 294.262 67.5866 294.5 67.7028C294.871 67.9276 295.261 68.1194 295.667 68.2759C296.829 68.7201 297.812 69.343 298.21 70.6011L298.206 71.6807Z" fill="white"/>
<path d="M202.57 45.0812C202.75 44.1345 202.888 43.2335 203.101 42.3574C204.389 37.0369 205.689 31.7206 206.999 26.4084C207.551 24.1745 208.15 21.9489 208.748 19.7191C208.785 19.578 208.969 19.362 209.091 19.362C211.864 19.3413 214.641 19.362 217.494 19.362C219.518 27.9033 222.032 36.3241 223.672 44.9816C223.747 44.4916 223.806 44.0017 223.898 43.5117C224.734 39.1103 225.508 34.7047 226.374 30.3116C227.077 26.7822 227.876 23.2735 228.616 19.7523C228.675 19.4824 228.737 19.3371 229.034 19.3371C232.414 19.3371 235.794 19.3371 239.174 19.3371C239.244 19.345 239.314 19.3575 239.383 19.3745C239.123 20.2049 238.877 21.0354 238.621 21.8659C235.356 32.4348 232.093 43.0023 228.834 53.5685C228.822 53.6584 228.792 53.7451 228.746 53.8233C228.7 53.9015 228.638 53.9696 228.564 54.0235C228.491 54.0774 228.407 54.116 228.318 54.137C228.229 54.158 228.137 54.161 228.047 54.1457C225.036 54.1208 222.024 54.1457 219.012 54.1457H218.427C216.478 46.4847 213.985 38.9815 212.864 31.0299C212.767 31.196 212.705 31.2542 212.696 31.3164C211.931 37.0424 210.366 42.5816 208.735 48.1041C208.191 49.9477 207.666 51.7969 207.158 53.6515C207.049 54.0668 206.878 54.1581 206.472 54.154C203.377 54.1374 200.282 54.1374 197.186 54.154C197.116 54.1676 197.044 54.1666 196.974 54.1511C196.904 54.1355 196.838 54.1057 196.78 54.0636C196.722 54.0214 196.674 53.9678 196.638 53.9062C196.602 53.8446 196.579 53.7763 196.572 53.7055C193.552 43.4162 190.522 33.1268 187.482 22.8375C187.432 22.6672 187.378 22.497 187.298 22.2437C187.152 22.4306 187.051 22.5468 186.959 22.6589C183.965 26.9552 180.968 31.2528 177.971 35.5518C177.88 35.6529 177.83 35.7837 177.83 35.9192C177.83 36.0548 177.88 36.1856 177.971 36.2867C181.66 42.0169 185.342 47.7525 189.017 53.4938C189.139 53.6848 189.256 53.8799 189.415 54.1374H188.9C185.102 54.1374 181.304 54.1374 177.506 54.1374C177.399 54.1406 177.292 54.1208 177.193 54.0792C177.094 54.0377 177.006 53.9753 176.933 53.8965C175.07 50.547 173.223 47.1864 171.391 43.8148C171.165 43.3996 170.973 42.9636 170.747 42.4487C170.621 42.6522 170.55 42.756 170.496 42.8639C168.618 46.5096 166.731 50.1553 164.857 53.7927C164.803 53.8834 164.73 53.9607 164.641 54.019C164.553 54.0772 164.452 54.1149 164.347 54.1291C157.655 54.1457 150.962 54.1457 144.27 54.1291C144.19 54.1291 144.111 54.1291 143.989 54.1L143.32 50.5622C143.197 50.6639 143.08 50.772 142.969 50.8861C140.877 53.228 138.209 54.4197 135.138 54.8059C132.912 55.1346 130.637 54.9004 128.525 54.1249C126.361 53.2822 124.531 51.7628 123.313 49.7963C122.095 47.8299 121.555 45.5233 121.774 43.2252C122.222 38.2134 125.037 35.0369 129.508 33.0936C132.223 31.9835 135.103 31.3241 138.033 31.142C139.426 31.0216 140.831 30.976 142.216 30.8971C142.542 29.56 141.798 27.9074 140.421 27.0687C139.241 26.3939 137.898 26.0508 136.536 26.0763C133.095 25.9975 129.691 26.7982 126.652 28.4015L126.233 28.6092C126.07 28.0528 125.915 27.5213 125.756 26.9898C125.284 25.3662 124.819 23.7427 124.33 22.1233C124.298 22.0627 124.281 21.9958 124.278 21.9275C124.276 21.8592 124.289 21.7912 124.317 21.7287C124.345 21.6661 124.386 21.6105 124.438 21.566C124.491 21.5215 124.552 21.4891 124.619 21.4714C130.013 18.9318 136.043 18.0304 141.952 18.8804C145.524 19.4908 148.599 20.9565 150.736 24.0167C152.007 25.8981 152.795 28.059 153.033 30.3116C153.18 31.5978 153.254 32.8912 153.254 34.1857C153.279 38.6037 153.254 43.0217 153.275 47.4397C153.275 49.1588 153.434 50.8737 153.518 52.5927L153.643 52.6218C153.727 52.5138 153.823 52.4142 153.898 52.3021C157.373 47.1034 160.859 41.9075 164.355 36.7144C164.442 36.6085 164.487 36.4748 164.48 36.3385C164.474 36.2023 164.418 36.073 164.322 35.9753C160.636 30.6078 156.962 25.2375 153.3 19.8645C153.208 19.7274 153.12 19.5863 152.995 19.3953C153.133 19.3703 153.273 19.3537 153.413 19.3454C157.211 19.3454 161.009 19.3454 164.807 19.3454C164.937 19.3374 165.066 19.37 165.176 19.4385C165.287 19.507 165.373 19.608 165.422 19.7274C167.374 23.1489 169.326 26.5662 171.278 29.9794L171.562 30.4445C171.893 29.7884 172.173 29.1988 172.479 28.6216C174.068 25.632 175.663 22.6451 177.264 19.661C177.307 19.5845 177.368 19.5185 177.44 19.4675C177.512 19.4166 177.595 19.382 177.682 19.3662C184.274 19.3662 190.866 19.3662 197.458 19.3662C197.533 19.3812 197.607 19.4006 197.68 19.4243L202.57 45.0812ZM142.755 37.6943C141.919 37.7317 141.208 37.7525 140.513 37.8023C138.875 37.8718 137.26 38.2099 135.732 38.803C133.411 39.7829 132.386 41.3816 132.566 43.7857C132.593 44.5309 132.858 45.2482 133.323 45.8341C133.788 46.42 134.428 46.8442 135.151 47.0453C135.924 47.2405 136.723 47.312 137.519 47.257C139.873 47.1034 142.228 45.1477 142.538 42.9304C142.764 41.2279 142.688 39.4923 142.751 37.6943H142.755Z" fill="white"/>
<path d="M108.297 16.1192C108.138 16.7212 107.975 17.3192 107.82 17.9171C105.892 25.3372 103.508 32.6162 101.199 39.9242C99.8355 44.2425 98.483 48.5623 97.1417 52.8834C97.1311 52.9658 97.1038 53.0453 97.0615 53.117C97.0192 53.1887 96.9628 53.2512 96.8957 53.3008C96.8285 53.3504 96.752 53.3861 96.6707 53.4057C96.5893 53.4253 96.5049 53.4284 96.4223 53.4149C93.9126 53.4149 91.4364 53.4149 88.9434 53.4149H88.4122C86.6889 47.2059 84.9642 41.0134 83.2381 34.8376C81.5273 28.6507 80.1051 22.4223 78.8294 16.1316C78.2466 28.7878 77.6651 41.4522 77.0851 54.125H66.8916C66.9836 52.6966 67.0673 51.2931 67.1551 49.8938C67.3392 47.0453 67.526 44.1969 67.7156 41.3484C67.9805 37.3124 68.2413 33.2736 68.4978 29.232C68.7111 25.9102 68.9161 22.5884 69.1252 19.2998C69.3818 15.3441 69.6397 11.3869 69.899 7.42844C69.9263 7.15249 69.9375 6.87521 69.9325 6.59798C69.9116 6.23258 70.0789 6.15784 70.4135 6.15784C74.9979 6.15784 79.5823 6.15784 84.1666 6.15784C84.228 6.14975 84.2903 6.15425 84.3498 6.17105C84.4093 6.18786 84.4647 6.21662 84.5125 6.25555C84.5604 6.29448 84.5997 6.34275 84.6279 6.39737C84.6562 6.45199 84.6729 6.51179 84.6769 6.57307C86.9942 14.67 89.6378 22.6756 91.5451 30.8847C92.1684 33.567 92.7205 36.2619 93.3061 38.9525C93.3354 39.0896 93.373 39.2266 93.4107 39.3678L93.5487 39.3927C93.6205 39.2591 93.6821 39.1203 93.7327 38.9774C95.0671 33.9283 96.3052 28.85 97.7566 23.8341C99.1871 18.9012 100.839 14.0306 102.395 9.13087C102.671 8.26305 102.943 7.39107 103.232 6.53155C103.269 6.45252 103.324 6.38321 103.393 6.32915C103.462 6.27509 103.543 6.23775 103.629 6.22012C108.264 6.22012 112.898 6.22012 117.533 6.22012C117.587 6.23006 117.64 6.24394 117.692 6.26165C118.551 22.2147 119.408 38.1913 120.264 54.1914H109.632C109.121 41.4522 108.41 28.8044 108.297 16.1192Z" fill="white"/>
<path d="M270.21 40.2107H247.485C247.664 40.9488 247.891 41.6742 248.167 42.3824C249.12 44.4253 250.89 45.5007 252.96 46.1692C254.964 46.817 257.03 46.8627 259.113 46.7796C261.72 46.6856 264.302 46.2343 266.784 45.4384C266.893 45.4011 267.006 45.3761 267.165 45.3346C267.642 47.7762 268.119 50.1969 268.608 52.6925C267.935 52.9333 267.278 53.199 266.6 53.4066C263.562 54.3082 260.414 54.7985 257.243 54.8641C254.228 54.9596 251.258 54.7437 248.384 53.7887C242.148 51.7125 238.58 47.3609 237.509 40.9789C236.712 36.7028 237.277 32.2867 239.123 28.3435C241.512 23.286 245.398 20.0389 250.982 18.9303C254.255 18.2132 257.665 18.4159 260.828 19.5158C264.969 21.0023 267.617 23.9836 269.16 27.9947C270.351 31.2514 270.781 34.7345 270.415 38.1802C270.373 38.8405 270.281 39.4965 270.21 40.2107ZM260.439 32.774C260.343 32.0556 260.301 31.3622 260.15 30.6978C259.732 28.8127 258.875 27.1684 257.001 26.3463C252.78 24.4943 248.1 27.0438 247.556 32.7781L260.439 32.774Z" fill="white"/>
<path d="M283.984 2.96057V54.1249H273.138V6.14122L283.984 2.96057Z" fill="white"/>
<path d="M298.068 2.97302V54.1208H287.146V53.5644C287.146 37.9352 287.146 22.3088 287.146 6.68516C287.132 6.60366 287.135 6.52013 287.154 6.43967C287.173 6.3592 287.209 6.28346 287.258 6.21706C287.308 6.15065 287.371 6.09496 287.443 6.05337C287.515 6.01178 287.595 5.98516 287.677 5.97512C290.902 5.05331 294.115 4.10244 297.331 3.15988C297.557 3.1059 297.817 3.04776 298.068 2.97302Z" fill="white"/>
<path d="M35.4328 -0.116305L28.1756 24.9718L14.251 20.998L35.2989 -0.178589L35.4328 -0.116305Z" fill="white"/>
<path d="M1.99124 20.7115L27.2889 27.9241C25.963 32.5206 24.6412 37.084 23.2901 41.747L1.92432 20.8444L1.99124 20.7115Z" fill="#F9A61B"/>
<path d="M56.6312 33.0563C54.7824 32.5414 52.9335 32.0348 51.0889 31.5075L31.643 25.9559L31.3042 25.8355L35.2904 12.0416L37.729 14.4209L52.5529 28.9539C53.9472 30.3075 55.3233 31.6625 56.6813 33.0189L56.6312 33.0563Z" fill="#F9A61B"/>
<path d="M23.1392 53.9505C25.5568 45.5961 27.9745 37.2417 30.4089 28.8209L44.3377 32.803L23.2395 54.0377L23.1392 53.9505Z" fill="white"/>
<path d="M276.71 64.0282H277.547C277.576 64.5347 277.601 65.0247 277.634 65.6226C278.404 64.4517 279.379 63.7832 280.759 63.7873C282.202 63.7873 283.068 64.5763 283.628 65.7513C283.953 65.3239 284.312 64.9239 284.703 64.5555C286.878 62.8364 289.806 63.9493 290.091 66.7479C290.325 69.0441 290.141 71.3818 290.141 73.7362H289.208C289.208 73.5701 289.183 73.3957 289.183 73.2213C289.183 71.4109 289.183 69.6005 289.183 67.7901C289.233 66.9871 289.007 66.191 288.543 65.5313C287.543 64.2192 285.615 64.3437 284.557 65.7638C284.149 66.3171 283.936 66.9883 283.95 67.6739V73.7362H282.947V73.1839C282.947 71.3901 282.947 69.5964 282.947 67.786C282.942 67.2218 282.85 66.6617 282.675 66.1251C282.573 65.8023 282.398 65.5071 282.163 65.2623C281.928 65.0175 281.639 64.8296 281.319 64.7132C281 64.5968 280.657 64.555 280.318 64.591C279.98 64.627 279.654 64.7399 279.366 64.9209C278.861 65.1911 278.441 65.5939 278.151 66.0853C277.861 66.5766 277.713 67.1377 277.722 67.7071C277.722 69.5175 277.722 71.3279 277.722 73.1383V73.7113H276.714L276.71 64.0282Z" fill="white"/>
<path d="M211.563 67.7901H208.396V67.0136H212.533C212.533 67.1797 212.567 67.325 212.567 67.4662C212.567 69.2101 212.567 70.9583 212.567 72.6981C212.579 72.7736 212.575 72.8507 212.557 72.925C212.539 72.9993 212.506 73.0693 212.461 73.131C212.415 73.1927 212.358 73.2449 212.292 73.2846C212.227 73.3243 212.153 73.3508 212.077 73.3624C210.455 73.905 208.723 74.0475 207.033 73.7776C204.46 73.3624 202.779 71.8676 202.076 69.3721C201.74 68.3243 201.632 67.2177 201.759 66.1254C201.886 65.0331 202.245 63.98 202.812 63.0357C203.879 61.2793 205.515 60.3699 207.501 60.0378C208.858 59.8091 210.249 59.9015 211.563 60.3077C211.751 60.3658 211.935 60.4405 212.186 60.5319C212.065 60.8142 211.956 61.0592 211.831 61.3623C210.728 60.892 209.525 60.7009 208.33 60.8059C206.9 60.8374 205.536 61.4083 204.515 62.4026C203.494 63.3968 202.893 64.7397 202.833 66.1582C202.734 67.2796 202.863 68.4095 203.214 69.48C203.516 70.3928 204.072 71.2023 204.817 71.8156C205.562 72.4289 206.467 72.8211 207.426 72.9472C208.633 73.151 209.871 73.0915 211.053 72.7728C211.13 72.7652 211.205 72.7421 211.273 72.7048C211.341 72.6674 211.401 72.6167 211.449 72.5557C211.497 72.4947 211.531 72.4247 211.551 72.35C211.571 72.2752 211.575 72.1973 211.563 72.1209C211.546 70.7133 211.563 69.289 211.563 67.7901Z" fill="white"/>
<path d="M233.903 68.8406C233.878 70.5804 233.338 72.0918 231.879 73.1382C231.241 73.5995 230.492 73.887 229.708 73.9721C228.923 74.0572 228.13 73.937 227.406 73.6233C226.683 73.3097 226.055 72.8136 225.585 72.1843C225.115 71.555 224.819 70.8145 224.726 70.0364C224.475 68.6538 224.714 67.2275 225.404 66.0004C225.871 65.1953 226.579 64.5544 227.43 64.1668C228.28 63.7791 229.231 63.6639 230.151 63.8371C231.063 63.9968 231.902 64.4372 232.548 65.0959C233.194 65.7546 233.616 66.5983 233.753 67.5077C233.819 67.9479 233.857 68.3963 233.903 68.8406ZM232.987 68.8406C232.817 68.0885 232.599 67.3479 232.335 66.6233C232.088 66.0609 231.69 65.5772 231.183 65.2258C230.677 64.8744 230.082 64.6691 229.465 64.6325C228.849 64.596 228.234 64.7296 227.689 65.0187C227.144 65.3078 226.69 65.741 226.378 66.2703C225.929 67.005 225.676 67.8415 225.643 68.7006C225.611 69.5596 225.801 70.4125 226.194 71.1783C227.231 73.296 229.641 73.8275 231.398 72.3493C232.46 71.4192 232.836 70.2067 232.983 68.8198L232.987 68.8406Z" fill="white"/>
<path d="M267.219 68.77C267.069 71.1368 268.378 73.1963 270.984 73.0842C271.433 73.0749 271.882 73.036 272.326 72.9679C272.751 72.8737 273.169 72.7573 273.581 72.6191C273.974 73.2752 273.945 73.3832 273.222 73.6115C272.061 74.0019 270.818 74.0849 269.616 73.8524C268.689 73.6362 267.858 73.1285 267.246 72.4049C266.634 71.6812 266.274 70.7805 266.219 69.8371C266.05 68.4932 266.298 67.1298 266.931 65.9298C268.118 63.7706 271.026 63.0689 272.916 64.518C273.937 65.3028 274.28 66.4489 274.418 67.6655C274.437 68.0334 274.437 68.402 274.418 68.77H267.219ZM273.401 67.9686C273.301 66.6689 273.029 65.5063 271.791 64.9125C271.297 64.6551 270.738 64.5474 270.184 64.6027C269.629 64.6581 269.103 64.8741 268.671 65.2239C268.257 65.5598 267.917 65.977 267.673 66.4493C267.429 66.9216 267.286 67.4388 267.253 67.9686H273.401Z" fill="white"/>
<path d="M222.873 68.7867H215.762C215.499 70.8836 216.733 72.9846 219.033 73.0843C220.066 73.1785 221.105 73.0039 222.049 72.5777C222.467 73.2753 222.438 73.3832 221.714 73.6116C220.669 73.9726 219.55 74.0724 218.456 73.9023C217.442 73.7621 216.51 73.273 215.822 72.5202C215.134 71.7674 214.734 70.7988 214.692 69.7832C214.535 68.44 214.794 67.0812 215.436 65.8884C216.532 63.9659 219.004 63.1728 220.874 64.2275C221.413 64.5496 221.871 64.9899 222.212 65.5147C222.814 66.4939 223.048 67.6528 222.873 68.7867ZM221.857 67.9562C221.857 65.851 220.669 64.5223 218.866 64.6095C217.193 64.6884 215.662 66.3534 215.825 67.9562H221.857Z" fill="white"/>
<path d="M242.105 60.536C241.984 60.8059 241.88 61.0467 241.75 61.3333C240.914 60.9058 239.984 60.6931 239.044 60.7146C237.002 60.7893 235.76 62.5872 236.567 64.327C236.885 64.9385 237.407 65.4214 238.044 65.6931C238.701 66.017 239.408 66.2454 240.043 66.6066C240.701 66.9233 241.303 67.344 241.825 67.8523C242.223 68.3207 242.495 68.8806 242.618 69.4808C242.74 70.0809 242.709 70.702 242.526 71.287C242.344 71.872 242.016 72.4021 241.574 72.8285C241.131 73.255 240.588 73.5643 239.993 73.7278C238.48 74.1498 236.864 74.011 235.446 73.3375C235.277 73.2484 235.114 73.1485 234.957 73.0385C235.087 72.7603 235.204 72.5112 235.346 72.2081C236.404 72.8921 237.665 73.1995 238.922 73.08C239.296 73.0699 239.663 72.9864 240.004 72.8346C240.345 72.6828 240.652 72.4655 240.908 72.1954C241.164 71.9252 241.363 71.6075 241.495 71.2605C241.626 70.9134 241.687 70.544 241.675 70.1735C241.662 69.6211 241.488 69.0841 241.175 68.6274C240.862 68.1706 240.422 67.8135 239.909 67.599C239.002 67.1464 238.031 66.806 237.153 66.3077C235.534 65.3859 234.932 63.8163 235.572 62.1554C235.797 61.6413 236.131 61.1811 236.551 60.8059C237.885 59.5561 240.704 59.6225 242.105 60.536Z" fill="white"/>
<path d="M251.663 64.0571C251.45 64.5886 251.245 65.1077 251.032 65.6267C249.827 68.5333 248.648 71.498 247.401 74.4088C246.786 75.8454 245.908 77.116 244.473 77.905C243.712 78.3202 243.662 78.3202 243.411 77.4275C243.649 77.3029 243.9 77.1783 244.138 77.0372C245.358 76.2875 246.277 75.1393 246.736 73.7901C246.806 73.473 246.77 73.1418 246.631 72.8475C245.515 70.024 244.377 67.2087 243.243 64.3935L243.093 64.0073C243.32 64.0202 243.547 64.0202 243.775 64.0073C244.08 63.9699 244.218 64.1111 244.323 64.381C245.318 66.9471 246.318 69.5118 247.322 72.0752C247.359 72.1665 247.401 72.2537 247.46 72.3866L248.756 68.907C249.275 67.5243 249.802 66.1457 250.321 64.7547C250.634 63.916 250.63 63.916 251.663 64.0571Z" fill="white"/>
<path d="M258.164 64.4433L257.833 65.1202C257.235 64.9499 256.687 64.7548 256.118 64.6468C255.846 64.5928 255.565 64.5987 255.296 64.664C255.026 64.7292 254.774 64.8524 254.558 65.0247C254.355 65.1733 254.191 65.3686 254.08 65.5938C253.969 65.8189 253.915 66.0674 253.922 66.3179C253.929 66.5684 253.997 66.8134 254.12 67.0322C254.243 67.251 254.418 67.4369 254.629 67.5742C255.148 67.8731 255.685 68.1421 256.235 68.3797C256.568 68.534 256.892 68.7058 257.206 68.8946C257.699 69.1824 258.086 69.6211 258.307 70.145C258.529 70.6688 258.574 71.2498 258.435 71.8012C258.3 72.3183 258.018 72.7859 257.623 73.1488C257.227 73.5116 256.736 73.7543 256.206 73.8483C255.286 74.0469 254.329 73.9821 253.445 73.6614C252.609 73.3624 252.579 73.3126 253.027 72.478C253.291 72.6281 253.572 72.7466 253.864 72.8309C254.551 72.9719 255.253 73.036 255.955 73.022C256.318 72.9887 256.66 72.841 256.932 72.6003C257.204 72.3596 257.39 72.0388 257.465 71.6849C257.561 71.2752 257.515 70.8452 257.334 70.4647C257.154 70.0841 256.849 69.7753 256.469 69.588C255.993 69.314 255.445 69.1728 254.985 68.8738C254.378 68.5444 253.827 68.1243 253.349 67.6281C252.625 66.7396 252.889 65.3361 253.801 64.5305C254.855 63.5797 256.967 63.5298 258.164 64.4433Z" fill="white"/>
<path d="M259.887 64.8379V64.0074H261.476V62.9901C261.476 62.1181 261.476 62.1181 262.459 61.9188V63.995H265.249V64.8254C264.5 64.8254 263.752 64.8462 263.007 64.8254C262.589 64.8047 262.468 64.95 262.472 65.3611C262.472 67.2005 262.472 69.0441 262.472 70.8877C262.476 71.2511 262.509 71.6135 262.572 71.9715C262.585 72.138 262.632 72.3002 262.709 72.4484C262.787 72.5967 262.893 72.728 263.023 72.8345C263.152 72.941 263.302 73.0206 263.463 73.0685C263.624 73.1164 263.794 73.1317 263.961 73.1134C264.308 73.1134 264.655 73.0802 265.006 73.0635C265.249 73.8026 265.249 73.8026 264.492 73.948C262.622 74.3009 261.543 73.3625 261.485 71.2365C261.43 69.3306 261.485 67.4206 261.485 65.5147V64.8545L259.887 64.8379Z" fill="white"/>
<path d="M56.6841 33.0065L56.7457 33.085L56.6313 33.0588L56.6841 33.0065Z" fill="#F9A61B"/>
<path d="M1.82843 20.7361L1.80713 20.6991L1.85506 20.7044L1.82843 20.7361Z" fill="#F9A61B"/>
</g>
<defs>
<clipPath id="clip0_1_1423">
<rect width="300" height="79.0179" fill="white"/>
</clipPath>
</defs>
</svg>
